<?xml version="1.0" encoding="UTF-8"?><svg viewBox="0 0 640 400" xmlns="http://www.w3.org/2000/svg" height="400" width="640"><title>LuaVG SVG element showcase</title><desc>A single drawing composed with LuaVG shape, text, and resource helpers.</desc><metadata>Generated by samples/showcase/showcase.lua</metadata><defs><linearGradient x2="100%" id="sunset" y2="100%" y1="0%" x1="0%"><stop offset="0%" stop-color="#e9c46a"></stop><stop offset="100%" stop-color="#e76f51"></stop></linearGradient><radialGradient id="halo" r="50%" cy="50%" cx="50%"><stop offset="0%" stop-color="#e9c46a" stop-opacity="0.8"></stop><stop offset="100%" stop-color="#e9c46a" stop-opacity="0"></stop></radialGradient><pattern height="14" id="dots" patternUnits="userSpaceOnUse" width="14"><circle fill="#2a9d8f" r="1.5" cy="3" cx="3"></circle></pattern><clipPath id="plot-clip"><rect y="104" x="48" rx="18" height="170" width="340"></rect></clipPath><mask id="label-mask"><rect y="0" x="0" height="48" fill="white" width="240"></rect><circle fill="black" r="15" cy="24" cx="218"></circle></mask><marker orient="auto" markerHeight="8" markerUnits="strokeWidth" refX="7" refY="4" markerWidth="8" id="arrow"><path fill="#457b9d" d="M 0 0 L 8 4 L 0 8 z"></path></marker><symbol viewBox="0 0 40 40" id="spark"><path fill="#e76f51" d="M20 0 L25 14 L40 20 L25 26 L20 40 L15 26 L0 20 L15 14 Z"></path></symbol></defs><rect y="0" x="0" height="400" fill="#fffdf7" width="640"></rect><rect y="22" x="22" rx="24" height="356" fill="url(#dots)" width="596"></rect><rect y="30" x="30" rx="20" height="340" fill="#fffdf7" width="580"></rect><text font-weight="700" x="52" font-family="sans-serif" font-size="25" y="76" fill="#263238">A small SVG field guide</text><text y="96" x="54" font-family="sans-serif" font-size="12" fill="#457b9d"><tspan dx="5">+ paths + reusable resources</tspan><tspan font-weight="700">shapes</tspan></text><g clip-path="url(#plot-clip)" id="plot"><rect y="104" x="48" rx="18" height="170" fill="url(#sunset)" width="340"></rect><ellipse cy="190" cx="214" rx="115" ry="74" fill="url(#halo)"></ellipse><polygon points="54,250 142,160 218,232 282,174 384,260" fill="#2a9d8f" fill-opacity="0.9"></polygon><polyline stroke-linecap="round" stroke-width="3" stroke-linejoin="round" points="72,223 144,185 212,204 294,145 360,164" stroke="#263238" fill="none"></polyline><path stroke-width="3" stroke-dasharray="6 7" d="M 74 244 C 126 224 148 254 196 238 S 284 214 352 236" stroke="#fffdf7" fill="none"></path><circle stroke-width="2" cy="145" cx="294" stroke="#263238" r="7" fill="#fffdf7"></circle></g><line marker-end="url(#arrow)" stroke-width="2" stroke="#457b9d" x2="565" y2="124" y1="124" x1="405"></line><use y="145" x="424" height="40" href="#spark" width="40"></use><use y="154" x="476" height="24" opacity="0.65" href="#spark" width="24"></use><g transform="translate(408 210)"><rect y="0" x="0" rx="12" height="54" fill="url(#sunset)" width="164"></rect><text font-family="sans-serif" x="16" y="34" mask="url(#label-mask)" font-size="18" fill="#263238">Reusable paint</text></g><image y="278" x="526" height="40" preserveAspectRatio="none" href="data:image/svg+xml,%3Csvg xmlns='http://www.w3.org/2000/svg' width='64' height='40'%3E%3Crect width='64' height='40' rx='8' fill='%23e9c46a'/%3E%3Ccircle cx='32' cy='20' r='8' fill='%23e76f51'/%3E%3C/svg%3E" width="56"></image><a href="#plot"><text font-family="sans-serif" text-decoration="underline" x="408" font-size="13" y="302" fill="#457b9d">Link to the plot</text></a><foreignObject height="42" x="52" y="300" width="290"><div style="font: 13px sans-serif; color: #263238; padding: 8px 10px; background: #e9c46a; border-radius: 8px;" xmlns="http://www.w3.org/1999/xhtml">HTML inside ForeignObject</div></foreignObject></svg>